# xmcd
#
# Track frame offsets:
#	150
#	11800
#	25338
#	38716
#	53404
#	64231
#	78110
#	91691
#	104827
#	118929
#	129509
#	140536
#	153891
#	169489
#	181153
#	194681
#	207282
#	218190
#	230014
#	243481
#
# Disc length: 3391 seconds
#
# Revision: 1
# Processed by: cddbd v1.5.2PL0 Copyright (c) Steve Scherf et al.
# Submitted via: audiograbber 1.83.01
#
DISCID=1c0d3d14
DTITLE=etta james - four classic albums cd1
DYEAR=2013
DGENRE=Blues
TTITLE0=anything so say you're mine
TTITLE1=my dearest darling
TTITLE2=trust in me
TTITLE3=a sunday kind of love
TTITLE4=tough mary
TTITLE5=i just want to make love to you
TTITLE6=at last
TTITLE7=all i could do was cry
TTITLE8=stormy weather
TTITLE9=girl of my dreams
TTITLE10=don't cry baby
TTITLE11=fool that i am
TTITLE12=one for my baby (and one more for the road)
TTITLE13=in my diary
TTITLE14=seven day fool
TTITLE15=it's too soon to know
TTITLE16=dream
TTITLE17=i'll dry my tears
TTITLE18=plum nuts
TTITLE19=don't get around much anymore
EXTD=
EXTT0=
EXTT1=
EXTT2=
EXTT3=
EXTT4=
EXTT5=
EXTT6=
EXTT7=
EXTT8=
EXTT9=
EXTT10=
EXTT11=
EXTT12=
EXTT13=
EXTT14=
EXTT15=
EXTT16=
EXTT17=
EXTT18=
EXTT19=
PLAYORDER=
